<?xml version="1.0" standalone="no"?><!DOCTYPE svg PUBLIC "-//W3C//DTD SVG 1.1//EN" "http://www.w3.org/Graphics/SVG/1.1/DTD/svg11.dtd"><svg t="1771572917286" class="icon" viewBox="0 0 1025 1024" version="1.1" xmlns="http://www.w3.org/2000/svg" p-id="10718" xmlns:xlink="http://www.w3.org/1999/xlink" width="200.1953125" height="200"><path d="M980.8 491.2h-107.2c-51.2-148.8-196.8-256-363.2-256s-315.2 107.2-363.2 256H43.2c-25.6 0-43.2 17.6-43.2 43.2C0 558.4 17.6 576 43.2 576H128v171.2c0 25.6 17.6 43.2 43.2 43.2s43.2-17.6 43.2-43.2v-140.8V576h596.8V747.2c0 25.6 17.6 43.2 43.2 43.2s43.2-17.6 43.2-43.2V576h84.8c25.6 0 43.2-17.6 43.2-43.2-1.6-25.6-19.2-41.6-44.8-41.6zM384 345.6c25.6-12.8 56-20.8 84.8-25.6v171.2H384v-145.6z m171.2-20.8c30.4 4.8 59.2 12.8 84.8 25.6v140.8h-84.8V324.8z m-256 80v84.8H240c11.2-28.8 33.6-59.2 59.2-84.8z m425.6 86.4v-84.8c25.6 25.6 46.4 51.2 59.2 84.8h-59.2z" p-id="10719"></path></svg>