<?xml version="1.0" standalone="no"?><!DOCTYPE svg PUBLIC "-//W3C//DTD SVG 1.1//EN" "http://www.w3.org/Graphics/SVG/1.1/DTD/svg11.dtd"><svg t="1771573183779" class="icon" viewBox="0 0 1024 1024" version="1.1" xmlns="http://www.w3.org/2000/svg" p-id="16529" xmlns:xlink="http://www.w3.org/1999/xlink" width="200" height="200"><path d="M924.8 337.6c-22.6-53.4-54.9-101.3-96-142.4-41.1-41.1-89-73.4-142.4-96C631.1 75.8 572.5 64 512 64S392.9 75.8 337.6 99.2c-53.4 22.6-101.3 54.9-142.4 96-41.1 41.1-73.4 89-96 142.4C75.8 392.9 64 451.5 64 512s11.8 119.1 35.2 174.4c22.6 53.4 54.9 101.3 96 142.4 41.1 41.1 89 73.4 142.4 96C392.9 948.2 451.5 960 512 960s119.1-11.8 174.4-35.2c53.4-22.6 101.3-54.9 142.4-96 41.1-41.1 73.4-89 96-142.4C948.2 631.1 960 572.5 960 512s-11.8-119.1-35.2-174.4zM544 894.7V832c0-17.7-14.3-32-32-32s-32 14.3-32 32v62.7C293.7 879.2 144.8 730.3 129.3 544H192c17.7 0 32-14.3 32-32s-14.3-32-32-32h-62.7C144.8 293.7 293.7 144.8 480 129.3V192c0 17.7 14.3 32 32 32s32-14.3 32-32v-62.7C730.3 144.8 879.2 293.7 894.7 480H832c-17.7 0-32 14.3-32 32s14.3 32 32 32h62.7C879.2 730.3 730.3 879.2 544 894.7z" p-id="16530" fill="#e6e6e6"></path><path d="M649.4 329.4L498.7 480H352c-17.7 0-32 14.3-32 32s14.3 32 32 32h160c8.5 0 16.6-3.4 22.6-9.4l160-160c12.5-12.5 12.5-32.8 0-45.3-12.5-12.4-32.7-12.4-45.2 0.1z" p-id="16531" fill="#e6e6e6"></path></svg>