<?xml version="1.0" standalone="no"?><!DOCTYPE svg PUBLIC "-//W3C//DTD SVG 1.1//EN" "http://www.w3.org/Graphics/SVG/1.1/DTD/svg11.dtd"><svg t="1771573008611" class="icon" viewBox="0 0 1024 1024" version="1.1" xmlns="http://www.w3.org/2000/svg" p-id="11736" xmlns:xlink="http://www.w3.org/1999/xlink" width="200" height="200"><path d="M85.800421 738.842947H140.665263v86.231579H83.860211c-46.888421 0-83.860211-37.834105-83.860211-84.237473V83.536842C0 37.726316 36.971789 0 83.860211 0h684.624842c46.888421 0 83.860211 37.780211 83.86021 83.536842v57.721263h-85.800421V86.231579H85.854316v652.611368zM1024 939.762526A84.614737 84.614737 0 0 1 940.139789 1024H254.922105a84.183579 84.183579 0 0 1-83.86021-84.237474V256c0-46.403368 37.618526-83.536842 83.86021-83.536842h685.271579C985.734737 172.463158 1024 209.542737 1024 256v683.762526z m-85.800421-681.768421H257.509053v680.421053h680.690526V257.994105zM339.375158 458.266947h178.930526c3.934316 0 7.221895-2.640842 7.221895-7.275789V378.017684a7.329684 7.329684 0 0 0-7.27579-7.275789h-178.930526c-4.581053 0-7.221895 3.341474-7.221895 7.275789v72.973474c0 4.634947 2.640842 7.275789 7.27579 7.275789z m0 184.373895h404.048842c3.287579 0 7.221895-3.287579 7.221895-7.275789V561.044211c0-3.988211-3.934316-6.629053-7.221895-6.629053H339.375158c-4.634947 0-7.275789 2.640842-7.27579 6.629053v74.266947c0 3.988211 2.640842 7.275789 7.27579 7.275789z m0 183.080421h516.311579a7.329684 7.329684 0 0 0 7.221895-7.329684v-72.919579-0.700632c0-3.988211-3.287579-6.629053-7.27579-6.629052h-516.311579c-4.581053 0-7.221895 2.694737-7.221895 6.629052v73.620211c0 3.988211 2.640842 7.329684 7.27579 7.329684z" fill="#C5C5C5" p-id="11737"></path></svg>