<?xml version="1.0" standalone="no"?><!DOCTYPE svg PUBLIC "-//W3C//DTD SVG 1.1//EN" "http://www.w3.org/Graphics/SVG/1.1/DTD/svg11.dtd"><svg t="1773903451606" class="icon" viewBox="0 0 1024 1024" version="1.1" xmlns="http://www.w3.org/2000/svg" p-id="6768" xmlns:xlink="http://www.w3.org/1999/xlink" width="200" height="200"><path d="M689.312146 710.996929a46.459679 46.459679 0 0 0 64.935301-5.968372 99.970229 99.970229 0 0 1 69.865059-28.013314c33.016214 1.755403 64.58422 13.940829 90.008314 34.727732 20.962443 14.540592 49.955858 9.610834 64.730504-11.015157a45.216268 45.216268 0 0 0-11.190697-63.677262A245.112841 245.112841 0 0 0 824.097878 585.134498a191.295096 191.295096 0 0 0-142.012143 61.995 44.689647 44.689647 0 0 0 6.070771 63.867431h1.141012z m287.081613 127.734861a189.056956 189.056956 0 0 0-142.407108-60.868617c-80.119541 0-138.969443 46.679105-189.861516 87.770175-45.947686 37.346209-85.429637 67.583035-132.913302 67.583035-47.454408 0-87.331324-31.363209-132.898673-67.583035-52.018457-41.09107-110.882987-87.770175-189.876144-87.770175A191.338981 191.338981 0 0 0 47.185548 838.73179a45.055356 45.055356 0 0 0 7.67989 61.951115 46.883902 46.883902 0 0 0 63.34081-3.686348 98.814588 98.814588 0 0 1 70.245396-28.379023c47.469036 0 86.950986 31.363209 132.898673 67.597663 51.638119 41.09107 110.50265 87.770175 189.876145 87.770175 79.358866 0 138.969443-46.679105 189.861516-87.770175 45.567349-37.346209 85.063928-67.597663 132.898673-67.597663a98.053914 98.053914 0 0 1 70.260025 28.379023 47.205726 47.205726 0 0 0 65.681347 6.348709 45.391809 45.391809 0 0 0 6.465736-64.613476zM53.256318 710.996929c8.177255 6.816817 18.548764 10.532421 29.256725 10.459279a46.649848 46.649848 0 0 0 35.693205-16.427651 98.829217 98.829217 0 0 1 70.245396-28.013314c33.016214 1.755403 64.569592 13.940829 89.993686 34.727732 20.977072 14.540592 49.955858 9.610834 64.745132-11.015157a45.216268 45.216268 0 0 0-11.205325-63.677262 246.312367 246.312367 0 0 0-143.533493-50.789674A189.0277 189.0277 0 0 0 47.185548 647.129498a44.689647 44.689647 0 0 0 6.07077 63.867431z" fill="#e6e6e6" p-id="6769"></path><path d="M460.539186 867.739832v-26.184769H621.641342v-110.736703H460.539186v-26.550478H621.641342v-97.468779H460.539186v-26.155512H621.641342v-113.779403H460.539186V440.31371H621.641342v-102.0182H460.539186V311.730404H621.641342V206.698761H460.539186v-26.184768H621.641342V0H387.587542v1023.985372h234.0538V867.739832z" fill="#e6e6e6" p-id="6770"></path></svg>