<?xml version="1.0" standalone="no"?><!DOCTYPE svg PUBLIC "-//W3C//DTD SVG 1.1//EN" "http://www.w3.org/Graphics/SVG/1.1/DTD/svg11.dtd"><svg t="1771573104457" class="icon" viewBox="0 0 1024 1024" version="1.1" xmlns="http://www.w3.org/2000/svg" p-id="14250" xmlns:xlink="http://www.w3.org/1999/xlink" width="200" height="200"><path d="M578.432 256.64l33.536 49.92-78.656 61.696c-1.536-3.392-3.136-6.336-4.48-9.28-1.28-3.008-3.072-5.696-4.032-7.168-2.112-3.584-4.48-7.68-7.296-12.032l-1.28-1.92a168.96 168.96 0 0 0-11.52-15.872v-0.64c-1.152-1.28-2.88-3.584-5.12-6.08s-5.12-5.824-7.68-8.576l87.36-49.92m20.16-86.272L367.616 302.592c4.928 1.536 9.728 3.328 14.592 5.376l3.968 1.856c3.584 1.536 7.04 3.2 10.496 5.12l4.8 2.688c3.2 1.728 6.208 3.648 9.28 5.632l4.48 3.072c3.328 2.112 6.528 4.608 9.344 7.104 0.896 0.832 2.048 1.472 2.944 2.368a160.704 160.704 0 0 1 22.4 22.592c1.344 1.408 2.432 2.88 3.584 4.288 1.088 1.344 4.224 5.632 6.272 8.512 2.048 2.88 2.048 3.2 3.2 4.608a345.152 345.152 0 0 1 8.256 13.824 155.52 155.52 0 0 1 7.872 16.832c1.728 4.16 3.2 8.384 4.608 12.672l1.6 5.184 2.688 10.752 1.28 5.76c0.832 3.776 1.408 7.552 1.792 11.328a166.976 166.976 0 0 1 1.408 21.76v9.216l207.104-162.752-100.992-149.952 0.832 0.064z m-242.624 189.44h6.272l3.328 0.512 4.16 0.64h0.768l5.184 1.216h1.664l4.032 1.472 4.48 1.6 4.416 1.92 3.392 1.664 2.56 1.6 4.224 2.432 2.816 1.984 3.84 2.88 2.24 1.92 4.48 4.032 2.368 2.56 2.816 3.008c0.896 1.28 1.728 2.56 2.688 3.648l0.704 0.896 1.28 1.6 1.92 3.2 1.472 2.24c0 0.576 0.64 1.152 1.024 1.6 0.896 1.856 1.728 3.712 2.688 5.376l0.64 1.28 0.768 1.472v0.832l0.896 2.56 1.92 5.12v1.28c0 0.896 0 1.92 0.64 2.816 0.64 0.96 0.896 3.2 1.28 4.736 0.896 5.056 1.28 10.112 1.344 15.232a111.936 111.936 0 0 1-6.208 31.232 84.672 84.672 0 0 1-98.112 51.776 84.864 84.864 0 0 1 15.232-166.912h5.952M354.048 294.4h-0.704a55.04 55.04 0 0 1-5.504 0.64 149.76 149.76 0 0 0 7.04 299.264A148.928 148.928 0 0 0 502.144 469.12a132.48 132.48 0 0 0-0.512-54.4l-1.472-5.504a78.08 78.08 0 0 0-2.24-9.28c-0.704-2.24-1.728-4.48-2.496-6.72-0.704-2.176-1.536-4.672-2.56-7.04-1.024-2.304-2.24-4.48-3.456-6.912-1.216-2.432-1.92-4.224-2.944-6.08-1.024-1.856-3.456-5.76-5.184-8.576a61.184 61.184 0 0 0-7.424-10.24l-3.072-4.224c-2.048-2.56-4.288-4.864-6.528-7.232-2.176-2.432-2.048-2.368-3.136-3.392a193.536 193.536 0 0 0-10.752-9.728 69.632 69.632 0 0 0-9.28-6.656l-2.688-2.048a190.4 190.4 0 0 0-9.28-5.632 35.904 35.904 0 0 1-3.136-1.92c-3.2-1.6-6.464-3.264-9.92-4.8a34.56 34.56 0 0 1-3.2-1.472c-3.392-1.472-6.848-2.56-10.368-3.84a80.128 80.128 0 0 0-12.736-3.84c-1.6 0.064-3.072-0.832-4.672-1.088a246.528 246.528 0 0 0-8.64-1.28 44.672 44.672 0 0 0-6.272-1.152h-7.68c-2.56 0-5.056-0.448-7.552-0.448L354.112 294.4z m116.672 263.872l101.12 227.2H448.768L369.856 607.68l4.928-1.216h1.216c1.856 0 4.48-1.088 7.488-2.112 3.072-1.024 5.632-1.6 9.28-2.688h1.088c2.24-0.704 5.12-1.728 8.512-3.2l1.536-0.512 6.464-2.496h0.576c2.24-0.896 5.12-2.24 8.512-3.84h0.768c2.048-1.088 4.992-2.432 8.512-4.416l2.112-1.088 1.92-0.96 3.264-1.856 6.528-3.84 2.24-1.408 5.12-3.264 0.768-0.576c2.688-1.728 5.312-3.52 7.808-5.376l1.024-0.704 2.048-1.536 2.88-1.984 1.728-1.408 4.864-3.904m15.168-126.336c-1.92 4.48-4.032 9.28-6.4 13.184 0 0.832-0.896 1.6-1.344 2.432-1.92 3.456-3.904 6.976-5.888 10.24a57.344 57.344 0 0 0-2.88 4.288 124.48 124.48 0 0 1-5.12 7.808l-3.456 4.672c-1.792 2.176-3.456 4.48-5.312 6.656l-4.096 4.352c-1.856 2.112-3.52 4.16-5.376 6.016l-4.352 4.352c-1.856 1.92-3.84 3.648-5.76 5.376l-4.736 4.032-5.76 4.672-5.12 3.648-6.144 4.352-5.12 3.2-6.464 3.84-5.504 2.88c-2.112 1.28-4.48 2.24-6.656 3.328-2.24 1.152-3.84 1.792-5.632 2.56l-7.04 2.752-5.632 2.048-7.36 2.24a126.976 126.976 0 0 1-13.632 3.328l-5.312 1.088-9.28 1.088h-4.48c-4.672 0-9.344 0.64-13.952 0.64-4.672 0-9.28 0-13.376-0.448l-4.16-0.512c-2.944 0-6.016-0.576-9.28-1.024l-4.992-1.024-7.424-1.28-5.312-1.408a37.568 37.568 0 0 1-4.352-1.152l137.088 309.12h265.216l-185.472-417.28h-0.128z m258.112 463.68c19.328-0.128 38.016 6.784 52.544 19.456H286.848c14.592-12.672 33.28-19.584 52.608-19.456h404.864z m0-55.68H339.52c-72.448 0-131.392 56.32-131.392 125.248v5.44h667.648v-5.44c0-68.992-59.072-125.312-131.456-125.312v0.128z m9.728-537.792a27.008 27.008 0 0 1-8.064-1.216l-95.872-29.312a27.84 27.84 0 0 1-19.712-28.736l8.448-108.8a27.84 27.84 0 0 1 18.56-24.32l100.48-33.28a27.84 27.84 0 1 1 17.472 52.736l-82.816 27.776-5.376 67.904 57.984 17.728 63.488-70.592a27.84 27.84 0 0 1 41.28 37.12l-75.264 83.456a27.84 27.84 0 0 1-20.608 9.536z" p-id="14251" fill="#e6e6e6"></path></svg>