<?xml version="1.0" standalone="no"?><!DOCTYPE svg PUBLIC "-//W3C//DTD SVG 1.1//EN" "http://www.w3.org/Graphics/SVG/1.1/DTD/svg11.dtd"><svg t="1771573141398" class="icon" viewBox="0 0 1024 1024" version="1.1" xmlns="http://www.w3.org/2000/svg" p-id="15468" xmlns:xlink="http://www.w3.org/1999/xlink" width="200" height="200"><path d="M665.39 682.55L832 686.89c-61.91 35.25-198.96 78.57-351.67 74.55-206.8-5.44-355.5-139.63-355.98-140.07L104.3 643.6c0.51 0.46 157.38 142.11 375.24 147.84 159.15 4.19 301.82-41.42 366.94-78.37l-89.01 139.01 25.25 16.02L916 659.09l-249.83-6.53-0.78 29.99zM408.41 319.09H60.7v36h242.76zM720.65 319.09l-113.42 36H963.1v-36zM103.859 432.11l141.416-38.472 7.875 28.947-141.416 38.472zM272.69 386.174l141.415-38.472 7.875 28.947-141.416 38.472zM441.527 340.241l141.416-38.472 7.875 28.947-141.416 38.472zM610.352 294.317l141.416-38.472 7.875 28.947-141.416 38.472zM779.188 248.382l141.416-38.472 7.875 28.947-141.416 38.472z" p-id="15469" fill="#e6e6e6"></path></svg>